<svg width="48" height="22" viewBox="0 0 48 22" fill="none" xmlns="http://www.w3.org/2000/svg">
<g clip-path="url(#clip0_0_31)">
<path d="M0.434 13.942V12.416L5.054 6.2H7.434L2.912 12.416L1.806 12.094H9.52V13.942H0.434ZM5.712 16V13.942L5.782 12.094V10.26H7.924V16H5.712ZM10.5558 18.156L11.4798 14.796L11.7878 16.056C11.3864 16.056 11.0551 15.9393 10.7938 15.706C10.5418 15.4727 10.4158 15.1507 10.4158 14.74C10.4158 14.3293 10.5464 14.0027 10.8078 13.76C11.0691 13.5173 11.3911 13.396 11.7738 13.396C12.1658 13.396 12.4878 13.522 12.7398 13.774C12.9918 14.0167 13.1178 14.3387 13.1178 14.74C13.1178 14.8613 13.1084 14.9827 13.0898 15.104C13.0711 15.216 13.0338 15.356 12.9778 15.524C12.9311 15.6827 12.8518 15.888 12.7398 16.14L11.9418 18.156H10.5558ZM15.4714 16L19.4194 7.068L20.0074 8.048H14.7294L15.7374 6.984V9.644H13.7214V6.2H21.5754V7.67L17.9354 16H15.4714Z" fill="black"/>
<path d="M37.4653 15.6149L37 15.3702L36.5347 15.6149L31.8625 18.0712L32.7548 12.8686L32.8437 12.3505L32.4672 11.9835L28.6873 8.29905L33.911 7.54001L34.4312 7.46441L34.6639 6.99297L37 2.25955L39.3361 6.99297L39.5688 7.46441L40.089 7.54001L45.3127 8.29905L41.5328 11.9835L41.1563 12.3505L41.2452 12.8686L42.1375 18.0712L37.4653 15.6149Z" stroke="black" stroke-width="2"/>
</g>
<defs>
<clipPath id="clip0_0_31">
<rect width="48" height="22" fill="white"/>
</clipPath>
</defs>
</svg>
